<svg width="17" height="17" viewBox="0 0 17 17" fill="none" xmlns="http://www.w3.org/2000/svg">
<g id="Location pin" clip-path="url(#clip0_2_45)">
<path id="Vector" d="M8.50001 1.41667C5.75876 1.41667 3.54167 3.63376 3.54167 6.37501C3.54167 7.60751 3.89584 8.76209 4.54042 9.80334C5.21334 10.8942 6.09876 11.8292 6.77875 12.92C7.11167 13.4513 7.35251 13.9471 7.60751 14.5208C7.79167 14.9104 7.94042 15.5833 8.50001 15.5833C9.05959 15.5833 9.20834 14.9104 9.38542 14.5208C9.64751 13.9471 9.88126 13.4513 10.2142 12.92C10.8942 11.8363 11.7796 10.9013 12.4525 9.80334C13.1042 8.76209 13.4583 7.60751 13.4583 6.37501C13.4583 3.63376 11.2413 1.41667 8.50001 1.41667ZM8.50001 8.32292C7.52251 8.32292 6.72917 7.52959 6.72917 6.55209C6.72917 5.57459 7.52251 4.78126 8.50001 4.78126C9.47751 4.78126 10.2708 5.57459 10.2708 6.55209C10.2708 7.52959 9.47751 8.32292 8.50001 8.32292Z" fill="black"/>
</g>
<defs>
<clipPath id="clip0_2_45">
<rect width="17" height="17" fill="white"/>
</clipPath>
</defs>
</svg>
