<svg width="20" height="20" viewBox="0 0 20 20" fill="none" xmlns="http://www.w3.org/2000/svg">
<g id="Sports esports" clip-path="url(#clip0_5_25)">
<g id="Group">
<g id="Group_2">
<path id="Vector" d="M17.9833 13.4083L17.075 7.02499C16.8417 5.38332 15.4333 4.16666 13.775 4.16666H6.225C4.56667 4.16666 3.15834 5.38332 2.925 7.02499L2.01667 13.4083C1.83334 14.6917 2.825 15.8333 4.11667 15.8333C4.68334 15.8333 5.21667 15.6083 5.61667 15.2083L7.5 13.3333H12.5L14.375 15.2083C14.775 15.6083 15.3167 15.8333 15.875 15.8333C17.175 15.8333 18.1667 14.6917 17.9833 13.4083ZM9.16667 9.16666H7.5V10.8333H6.66667V9.16666H5V8.33332H6.66667V6.66666H7.5V8.33332H9.16667V9.16666ZM12.5 8.33332C12.0417 8.33332 11.6667 7.95832 11.6667 7.49999C11.6667 7.04166 12.0417 6.66666 12.5 6.66666C12.9583 6.66666 13.3333 7.04166 13.3333 7.49999C13.3333 7.95832 12.9583 8.33332 12.5 8.33332ZM14.1667 10.8333C13.7083 10.8333 13.3333 10.4583 13.3333 9.99999C13.3333 9.54166 13.7083 9.16666 14.1667 9.16666C14.625 9.16666 15 9.54166 15 9.99999C15 10.4583 14.625 10.8333 14.1667 10.8333Z" fill="black"/>
</g>
</g>
</g>
<defs>
<clipPath id="clip0_5_25">
<rect width="20" height="20" fill="white"/>
</clipPath>
</defs>
</svg>
